<?xml version="1.0" encoding="iso-8859-1"?>
<!-- Generator: Adobe Illustrator 19.0.0, SVG Export Plug-In . SVG Version: 6.00 Build 0)  -->
<svg version="1.1" id="Layer_1" xmlns="http://www.w3.org/2000/svg" xmlns:xlink="http://www.w3.org/1999/xlink" x="0px" y="0px"
	 viewBox="0 0 512 512" style="enable-background:new 0 0 512 512;" xml:space="preserve">
<rect x="10.199" y="10.199" style="fill:#FFCA12;" width="491.602" height="491.602"/>
<g>
	<rect x="174.07" y="10.199" style="fill:#6ED3FF;" width="163.86" height="163.871"/>
	<rect x="174.07" y="337.93" style="fill:#6ED3FF;" width="163.86" height="163.871"/>
	<rect x="337.93" y="174.07" style="fill:#6ED3FF;" width="163.871" height="163.86"/>
	<rect x="10.199" y="174.07" style="fill:#6ED3FF;" width="163.871" height="163.86"/>
</g>
<rect x="174.07" y="174.07" style="fill:#FFCA12;" width="163.86" height="163.86"/>
<path d="M10.199,0C4.566,0,0,4.567,0,10.199v491.602C0,507.433,4.566,512,10.199,512h491.602c5.633,0,10.199-4.567,10.199-10.199
	V10.199C512,4.567,507.434,0,501.801,0H10.199z M491.602,163.871H348.129V20.398h143.472V163.871z M491.602,327.731H348.129V184.269
	h143.472V327.731z M20.398,184.269h143.472v143.462H20.398V184.269z M184.269,184.269h143.462v143.462H184.269V184.269z
	 M327.731,20.398v143.472H184.269V20.398H327.731z M163.871,20.398v143.472H20.398V20.398H163.871z M20.398,348.129h143.472v143.472
	H20.398V348.129z M184.269,491.602V348.129h143.462v143.472H184.269z M348.129,491.602V348.129h143.472v143.472H348.129z"/>
<path d="M471.713,400.829c-5.633,0-10.199,4.567-10.199,10.199v58.135c0,5.632,4.566,10.199,10.199,10.199
	s10.199-4.567,10.199-10.199v-58.135C481.912,405.396,477.346,400.829,471.713,400.829z"/>
<path d="M471.713,367.171c-5.633,0-10.199,4.567-10.199,10.199v4.769c0,5.632,4.566,10.199,10.199,10.199
	s10.199-4.567,10.199-10.199v-4.769C481.912,371.739,477.346,367.171,471.713,367.171z"/>
<g>
</g>
<g>
</g>
<g>
</g>
<g>
</g>
<g>
</g>
<g>
</g>
<g>
</g>
<g>
</g>
<g>
</g>
<g>
</g>
<g>
</g>
<g>
</g>
<g>
</g>
<g>
</g>
<g>
</g>
</svg>
