<?xml version="1.0" encoding="iso-8859-1"?>
<!-- Generator: Adobe Illustrator 19.0.0, SVG Export Plug-In . SVG Version: 6.00 Build 0)  -->
<svg version="1.1" id="Layer_1" xmlns="http://www.w3.org/2000/svg" xmlns:xlink="http://www.w3.org/1999/xlink" x="0px" y="0px"
	 viewBox="0 0 504 504" style="enable-background:new 0 0 504 504;" xml:space="preserve">
<path style="fill:#AEB1B4;" d="M228.197,76h200v352h-198.8v-0.4c0-12.8-10.8-23.6-23.6-23.6h-23.2c-12.8,0-26.4,11.2-26.4,24v1.6v34
	c0,19.6,18.4,36.4,38,36.4h271.6c19.6,0,34.4-16.8,34.4-36.4V38.8c0-19.6-14.8-34.8-34.4-34.8h-271.6c-19.6,0-38,15.2-38,34.8V74
	c0,12.8,13.6,26,26.4,26h23.2c12.8,0,23.2-10.8,23.2-23.6"/>
<path style="fill:#E8E3E3;" d="M177.397,40c0-8.8,8.4-16,16.8-16h271.6c8.8,0,14.4,6,14.4,14.8v424.8c0,8.8-6,16.4-14.4,16.4h-271.6
	c-8.8,0-18-7.6-18-16.4v-34V428c0-2,4.4-4,6.4-4h23.2c2,0,3.6,1.6,4,3.6c0,0.4,0,0.4,0,0.8c0,4.8,2,9.6,5.2,13.2
	c3.6,4,9.2,6.4,14.4,6.4h200.8c10.8,0,18-8.8,18-20V74c0-10.8-7.2-18-18-18h-200.8c-9.2,0-17.2,5.6-19.2,14.4
	c-0.4,1.6-0.4,2.4-0.4,4c0,0.4,0,1.2,0,1.6c-0.4,2-2,4-4,4h-23.2c-2,0-6.4-4-6.4-6V40"/>
<path style="fill:#13A289;" d="M256.197,364.8l96.8-96.8c4.8-4.8,6.8-10.8,6.8-16.8s-2.4-12-6.8-16.8l-96.8-96.8
	c-9.2-9.2-24.4-9.2-33.6,0l-16.4,16.4c-9.2,9.2-9.2,24.4,0,33.6l27.6,28h-204.8c-12.8,0-24.8,10.4-24.8,23.2V262
	c0,12.8,11.6,25.6,24.8,25.6h206l-28.8,28c-9.2,9.2-9.2,23.6,0,32.8l16.4,16.4C231.797,374.4,246.997,374,256.197,364.8z"/>
<path style="fill:#54B265;" d="M44.197,236h236.8l-0.8-1.2l-55.6-56c-4-4-4-10.8,0-14.4l7.6-7.6c4-4,10.4-4,14.4,0l10.4,10.4
	l77.2,76.8c2,2,3.2,4.8,2.8,7.6c0,2.8-0.8,5.6-2.8,7.6l-56.4,56.4l-20,20l-11.2,11.2c-4,4-10.4,4-14.4,0l-7.6-7.6
	c-4-4-4-10.4,0-14.4l55.6-55.2l2-1.2h-246.8c-5.6,0-11.2-6-11.2-11.6V246c0-5.6,5.6-9.6,11.2-9.6h8.8"/>
<path d="M465.797,504h-271.6c-22.4,0-42-18.8-42-40.4V428c0-14.8,14.4-28,30.4-28h23.2c14,0,25.6,10.4,27.2,24h190.8V80h-191.6
	c-1.6,13.6-13.2,24-26.8,24h-23.2c-15.2,0-30.4-14.8-30.4-30V38.8c0-20.8,19.2-38.8,42-38.8h271.6c21.6,0,38.4,16.8,38.4,38.8v424.8
	C504.197,486,486.997,504,465.797,504z M182.597,408c-11.2,0-22.4,10-22.4,20v35.6c0,16.8,16,32.4,34,32.4h271.6
	c16.8,0,30.4-14.4,30.4-32.4V38.8c0-17.6-13.2-30.8-30.4-30.8h-271.6c-18.4,0-34,14-34,30.8V74c0,10.8,11.6,22,22.4,22h23.2
	c10,0,18-7.6,18.8-17.6c-0.4-0.8-0.8-1.6-0.8-2.4c0-2.4,1.6-4,4-4h200c2.4,0,4,1.6,4,4v352c0,2.4-1.6,4-4,4h-198.8
	c-1.2,0-2.4-0.4-2.8-1.2c-0.8-0.8-1.2-2-1.2-3.2c0-10.8-8.8-19.6-19.6-19.6L182.597,408L182.597,408z"/>
<path d="M465.797,484h-271.6c-11.2,0-22-10-22-20.4V428c0-5.2,6.8-8,10.4-8h23.2c4,0,7.6,3.2,8,7.2v0.4v0.4c0,4,1.6,7.6,4,10.8
	c3.2,3.2,7.2,5.2,11.6,5.2h200.8c9.2,0,14-8,14-16V74c0-8.8-5.2-14-14-14h-200.8c-7.6,0-13.6,4.4-15.2,11.2c-0.4,1.2-0.4,2-0.4,3.2
	c0,0.4,0,1.2,0,1.2c0,0.4,0,0.4,0,0.8c-0.8,3.6-3.6,7.2-8,7.2h-23.2c-4,0-10.4-5.6-10.4-10V40l0,0l0,0c0-11.2,11.6-19.6,22-19.6h230
	c2.4,0,4,1.6,4,4s-1.6,4-4,4h-230c-6.4,0-14,5.2-14,11.6l0,0l0,0v33.6c0.4,0.8,2,2,2.8,2.4h22.4l0.4-0.4c0-0.4,0-0.8,0-1.2
	c0-2,0.4-3.2,0.4-4.8c2.4-10.4,11.6-17.6,23.2-17.6h200.8c13.2,0,22,8.8,22,22v354c0,13.6-9.6,24-22,24h-200.8
	c-6.8,0-12.8-2.8-17.6-8c-4-4.4-6-10-6-16v-0.4h-23.2c-0.4,0-1.6,0.4-2.4,1.2v34.4c0,6,7.2,12.4,14,12.4h271.6
	c6.8,0,10.4-6.4,10.4-12.4V38.8c0-6.4-4-10.8-10.4-10.8h-9.6c-2.4,0-4-1.6-4-4s1.6-4,4-4h9.6c10.8,0,18.4,7.6,18.4,18.8v424.8
	C484.197,475.2,476.197,484,465.797,484z"/>
<path d="M238.997,376c-7.2,0-14-2.8-19.2-8l-16.4-16.4c-5.2-5.2-8-12-8-19.2s2.8-14,8-19.2l21.6-21.2h-196
	c-15.2,0-28.8-14-28.8-29.6v-23.2c0-14.8,13.2-27.2,28.8-27.2h195.2l-20.8-20.8c-5.2-5.2-8-12-8-19.6s2.8-14.4,8-19.6l16.4-16.4
	c5.2-5.2,12-8,19.6-8s14.4,2.8,19.6,8l96.8,96.8c5.2,5.2,8,12,8,19.6s-2.8,14.4-8,19.6l-96.8,96.8
	C253.797,372.8,246.597,375.6,238.997,376C239.397,376,238.997,376,238.997,376z M28.997,220c-11.2,0-20.8,8.8-20.8,19.2v23.2
	c0,11.2,10,21.6,20.8,21.6h206c1.6,0,3.2,0.8,3.6,2.4c0.8,1.6,0.4,3.2-0.8,4.4l-28.8,28c-3.6,3.6-5.6,8.4-5.6,13.6s2,10,5.6,13.6
	l16.4,16.4c3.6,3.6,8.8,5.6,14,5.6s10.4-2,14-6l96.8-96.8c3.6-3.6,5.6-8.8,5.6-14s-2-10.4-5.6-14l-96.8-96.8
	c-3.6-3.6-8.8-5.6-14-5.6s-10,2-14,5.6l-16.4,16.4c-3.6,3.6-5.6,8.8-5.6,14s2,10.4,5.6,14l27.6,28c1.2,1.2,1.6,2.8,0.8,4.4
	s-2,2.4-3.6,2.4h-204.8V220z"/>
<path d="M280.997,240h-236.8c-2.4,0-4-1.6-4-4s1.6-4,4-4h227.6l-50-50.4c-2.8-2.8-4-6.4-4-10c0-4,1.6-7.2,4-10l7.6-7.6
	c5.2-5.2,14.8-5.2,20,0l12.4,12.4c1.6,1.6,1.6,4,0,5.6s-4,1.6-5.6,0l-12.4-12.4c-2.4-2.4-6.4-2.4-8.8,0l-7.6,7.6
	c-1.2,1.2-2,2.8-2,4.4s0.8,3.2,2,4.4l56,56c0,0,0.4,0.4,0.4,0.8l0.8,1.2c0.8,1.2,0.8,2.8,0,4C283.797,239.2,282.597,240,280.997,240
	z"/>
<path d="M239.397,353.6c-3.6,0-7.2-1.2-10-4l-7.6-7.6c-2.8-2.8-4-6.4-4-10s1.6-7.2,4-10l50-50h-236.4c-7.6,0-15.2-8-15.2-15.6v-10.8
	c0-8.4,8-13.6,15.2-13.6h8.8c2.4,0,4,1.6,4,4s-1.6,4-4,4h-8.8c-3.6,0-7.2,2-7.2,5.6v10.8c0,3.6,4,7.6,7.2,7.6h246.8
	c1.6,0,3.2,1.2,4,2.8c0.4,1.6-0.4,3.6-1.6,4.4l-1.6,1.2l-55.6,55.2c-1.2,1.2-2,2.8-2,4.4s0.8,3.2,2,4.4l7.6,7.6
	c2.4,2.4,6.4,2.4,8.8,0l87.6-87.6c1.2-1.2,2-2.8,2-4.4c0-2-0.8-3.6-1.6-4.8l-54.4-53.6c-1.6-1.6-1.6-4,0-5.6s4-1.6,5.6,0l54.4,53.6
	c2.8,2.8,4.4,6.4,4,10.4c0,3.6-1.2,7.6-4,10.4l-87.6,87.6C246.597,352,242.997,353.6,239.397,353.6z"/>
<g>
</g>
<g>
</g>
<g>
</g>
<g>
</g>
<g>
</g>
<g>
</g>
<g>
</g>
<g>
</g>
<g>
</g>
<g>
</g>
<g>
</g>
<g>
</g>
<g>
</g>
<g>
</g>
<g>
</g>
</svg>
